<svg id="Layer_2" data-name="Layer 2" xmlns="http://www.w3.org/2000/svg" viewBox="0 0 1582.98 1945.28"><defs><style>.cls-1{fill:#00a79d;}.cls-2{font-size:41px;font-family:CenturyGothic-Bold, Century Gothic;font-weight:700;}.cls-2,.cls-3{fill:#231f20;}.cls-4,.cls-5{fill:none;stroke-miterlimit:10;stroke-width:6px;}.cls-4{stroke:#000;}.cls-5{stroke:#231f20;}</style></defs><title>CrawlTree</title><rect class="cls-1" x="653.55" y="1049.49" width="363" height="83.75" rx="41.87"/><text class="cls-2" transform="translate(672.55 1102.25)">/hw/page1.html</text><rect class="cls-1" x="665.02" y="1314.25" width="363" height="83.75" rx="41.87"/><text class="cls-2" transform="translate(684.02 1367)">/hw/page2.html</text><rect class="cls-1" x="1128.96" y="1652.28" width="363" height="83.75" rx="41.87"/><text class="cls-2" transform="translate(1147.96 1705.04)">/hw/page1.html</text><rect class="cls-1" x="1127.03" y="1744.07" width="363" height="83.75" rx="41.87"/><text class="cls-2" transform="translate(1146.03 1796.82)">/hw/page2.html</text><rect class="cls-1" x="654.51" y="1576.93" width="363" height="83.75" rx="41.87"/><text class="cls-2" transform="translate(673.51 1629.68)">/hw/page3.html</text><rect class="cls-1" x="1140.86" y="1288.56" width="363" height="83.75" rx="41.87"/><text class="cls-2" transform="translate(1153.86 1341.31)">/hw/page1.html</text><rect class="cls-1" x="1137.97" y="1390.2" width="363" height="83.75" rx="41.87"/><text class="cls-2" transform="translate(1156.97 1442.95)">/hw/page3.html</text><rect class="cls-1" x="1131.4" y="944.21" width="363" height="83.75" rx="41.87"/><text class="cls-2" transform="translate(1150.4 996.96)">/hw/page2.html</text><rect class="cls-1" x="1130.44" y="1049.27" width="363" height="83.75" rx="41.87"/><text class="cls-2" transform="translate(1149.44 1102.02)">/hw/page3.html</text><rect class="cls-1" x="1132.45" y="843.14" width="348.26" height="83.75" rx="41.87"/><text class="cls-2" transform="translate(1212.29 898.32)">3618.html</text><rect class="cls-1" x="1132.81" y="1186.53" width="348.26" height="83.75" rx="41.87"/><rect class="cls-1" x="1137.34" y="1559.6" width="348.26" height="83.75" rx="41.87"/><path class="cls-3" d="M1013.92,1048.46l80.9-28.21,22.88-8a2.56,2.56,0,0,0,1.75-3.07,2.53,2.53,0,0,0-3.08-1.75l-80.9,28.21-22.88,8a2.58,2.58,0,0,0-1.75,3.08,2.53,2.53,0,0,0,3.08,1.74Z"/><path class="cls-3" d="M1008.71,1019.8l38.46-44.95,38.46-45,21.75-25.42a2.56,2.56,0,0,0,0-3.54,2.54,2.54,0,0,0-3.54,0l-38.46,45-38.46,45-21.75,25.42a2.57,2.57,0,0,0,0,3.53,2.53,2.53,0,0,0,3.54,0Z"/><path class="cls-3" d="M1029.93,1071.35l65.52,20.5,18.52,5.79c3.08,1,4.39-3.87,1.33-4.82l-65.52-20.5-18.52-5.79c-3.08-1-4.39,3.86-1.33,4.82Z"/><path class="cls-3" d="M1027.36,1657.55l66.47,27.27,18.92,7.77a2.53,2.53,0,0,0,3.08-1.75,2.56,2.56,0,0,0-1.75-3.07l-66.47-27.27-18.92-7.77a2.53,2.53,0,0,0-3.08,1.75,2.56,2.56,0,0,0,1.75,3.07Z"/><path class="cls-3" d="M1008,1677.08l38.55,46.9,38.39,46.71,21.73,26.45a2.54,2.54,0,0,0,3.54,0,2.56,2.56,0,0,0,0-3.54l-38.55-46.9L1033.26,1700l-21.73-26.44a2.53,2.53,0,0,0-3.54,0,2.56,2.56,0,0,0,0,3.54Z"/><path class="cls-3" d="M1038.08,1624.72l65.52-21.33,18.52-6c3-1,1.74-5.82-1.33-4.82l-65.52,21.33-18.52,6c-3,1-1.74,5.82,1.33,4.82Z"/><path class="cls-3" d="M1043.88,1349.44l64.26-16,18.19-4.53c3.12-.78,1.79-5.6-1.33-4.82l-64.26,16-18.18,4.53c-3.12.78-1.8,5.6,1.32,4.82Z"/><path class="cls-3" d="M1035,1324.84l67.88-66,18.94-18.42c2.31-2.25-1.23-5.78-3.54-3.54l-67.88,66-18.94,18.42c-2.31,2.25,1.23,5.78,3.54,3.54Z"/><path class="cls-3" d="M1042.71,1377.82l59.17,34.83,16.72,9.84c2.78,1.63,5.29-2.69,2.52-4.32L1062,1383.35l-16.72-9.85c-2.78-1.63-5.3,2.69-2.53,4.32Z"/><path class="cls-3" d="M411.93,654.54a862.1,862.1,0,0,0,1.67,113.65,839.93,839.93,0,0,0,16.24,110.35,706.47,706.47,0,0,0,30,101.88c12.34,32.41,27.14,64.84,49,92,19.22,23.9,48.23,46.12,80.75,40.57a58.11,58.11,0,0,0,11-3.07c3-1.14,1.68-6-1.33-4.82-31.06,11.94-61.59-7.3-81.72-30.09C495,1049.61,480,1018,467.56,986.66a693.4,693.4,0,0,1-30.69-99.56,820.68,820.68,0,0,1-17.28-107.63,861.1,861.1,0,0,1-3.27-111q.26-6.95.61-13.89c.16-3.22-4.84-3.21-5,0Z"/><path class="cls-3" d="M405.74,654.54q-3.47,87.11,1.74,174.27A1692.8,1692.8,0,0,0,426,997.94a1400.64,1400.64,0,0,0,34.56,157.91c14.37,50.78,31.28,102.21,57.89,148.07,12.09,20.82,26.58,41.08,45.79,55.92,16.22,12.53,36.51,20.74,57.18,16.23a62,62,0,0,0,14.14-5.12c2.88-1.43.35-5.74-2.53-4.32-45,22.32-85.35-24.46-106.35-58.67-27.17-44.27-44.18-94.6-58.65-144.21a1375.54,1375.54,0,0,1-34.88-153.1,1661.15,1661.15,0,0,1-19.59-165.07q-5.88-84.9-3.53-170.11.29-10.47.71-20.93c.13-3.22-4.87-3.21-5,0Z"/><path class="cls-3" d="M405.49,648.57q-2.75,116.11,1.17,232.25,3.84,113.52,14.21,226.7c6.58,70.82,15.22,141.47,26.57,211.69,11.26,69.68,24.15,139.84,45.68,207.19,9.33,29.18,20.18,59.21,37.65,84.61,11.17,16.25,30,36.58,52,28.85a41,41,0,0,0,12.48-7.43c2.48-2-1.08-5.57-3.54-3.53-7.92,6.56-17.55,9.55-27.49,6-11.11-3.94-19.83-13.68-26.61-22.91-18-24.44-28.87-54-38.23-82.57-21.45-65.49-34.26-133.86-45.49-201.73-11.29-68.26-19.95-136.94-26.63-205.8q-10.62-109.47-14.79-219.43Q408,789.8,409.91,677q.24-14.22.58-28.43c.08-3.22-4.92-3.21-5,0Z"/><rect class="cls-1" x="584.07" y="873.88" width="414" height="83.75" rx="41.87"/><text class="cls-2" transform="translate(603.07 926.64)">/hw/sitemaps.html</text><path class="cls-3" d="M411.72,648.57a375.21,375.21,0,0,0,16.57,139.24,333.69,333.69,0,0,0,27.19,62.82c10.86,19.22,24.17,37.78,41.65,51.52s39.37,22.26,61.67,19a63.13,63.13,0,0,0,7.7-1.64c3.09-.87,1.78-5.69-1.33-4.82-20.87,5.83-42.74-.79-60.1-12.84-17.7-12.29-31.19-30-42.12-48.32a319.69,319.69,0,0,1-27.78-60.8,367.92,367.92,0,0,1-19-135.55c.13-2.87.31-5.75.51-8.62a2.52,2.52,0,0,0-2.5-2.5,2.55,2.55,0,0,0-2.5,2.5Z"/><circle class="cls-4" cx="420.87" cy="402.59" r="203.74"/><rect class="cls-1" x="528.45" y="363.71" width="252.5" height="83.75" rx="41.87"/><text class="cls-2" transform="translate(544.83 417.01)">netart.html</text><rect class="cls-1" x="279.81" y="183.88" width="282.11" height="83.75" rx="41.87"/><text class="cls-2" transform="translate(289.81 238.31)">portfolio.html</text><rect class="cls-1" x="79.12" y="362.91" width="257.58" height="83.75" rx="41.87"/><text class="cls-2" transform="translate(101.12 421.89)">index.html</text><rect class="cls-1" x="244.55" y="542.04" width="348.26" height="83.75" rx="41.87"/><text class="cls-2" transform="translate(329.04 597.22)">3618.html</text><line class="cls-4" x1="418.68" y1="270.42" x2="420.87" y2="542.04"/><line class="cls-4" x1="337.7" y1="404.78" x2="529.02" y2="405.46"/><line class="cls-5" x1="794.42" y1="843.14" x2="603.07" y2="493.87"/><text class="cls-2" transform="translate(1212.29 1243.16)">3618.html</text><text class="cls-2" transform="translate(1209.42 1613.56)">3618.html</text></svg>