<svg id="Layer_1" data-name="Layer 1" xmlns="http://www.w3.org/2000/svg" viewBox="0 0 1582.98 1945.28"><defs><style>.cls-1{fill:#00a79d;}.cls-2{font-size:41px;font-family:CenturyGothic-Bold, Century Gothic;font-weight:700;}.cls-2,.cls-5{fill:#231f20;}.cls-3{fill:#27aae1;}.cls-4{fill:#9c7eba;}</style></defs><title>DirectoryTree</title><rect class="cls-1" x="118.47" y="919.53" width="320.57" height="83.75" rx="41.87"/><rect class="cls-1" x="674.55" y="1365.35" width="270.3" height="83.75" rx="41.87"/><rect class="cls-1" x="603.48" y="918.96" width="282.11" height="83.75" rx="41.87"/><rect class="cls-1" x="714.44" y="623.51" width="252.5" height="83.75" rx="41.87"/><text class="cls-2" transform="translate(136.85 977.64)">KDC59_ROOT/</text><rect class="cls-1" x="1143.28" y="465.08" width="220.71" height="83.75" rx="41.87"/><text class="cls-2" transform="translate(766.01 1419.9)">HW/</text><rect class="cls-3" x="405.92" y="1553.11" width="348.26" height="83.75" rx="41.87"/><text class="cls-2" transform="translate(427.35 1608.29)">3618index.html</text><rect class="cls-3" x="243.57" y="140.84" width="348.26" height="83.75" rx="41.87"/><text class="cls-2" transform="translate(301.76 196.02)">index.html</text><rect class="cls-3" x="373.28" y="302.81" width="348.26" height="83.75" rx="41.87"/><text class="cls-2" transform="translate(422.7 357.99)">netart.html</text><rect class="cls-3" x="620.6" y="451.71" width="348.26" height="83.75" rx="41.87"/><text class="cls-2" transform="translate(658.02 506.89)">sitemaps.html</text><rect class="cls-3" x="222.15" y="1712.48" width="348.26" height="83.75" rx="41.87"/><text class="cls-2" transform="translate(255.57 1767.66)">portfolio.html</text><text class="cls-2" transform="translate(786.04 676.81)">IMGS/</text><rect class="cls-3" x="1125.24" y="1383.73" width="266.14" height="83.75" rx="41.87"/><text class="cls-2" transform="translate(1141.62 1437.03)">page2.html</text><text class="cls-2" transform="translate(668.79 974.39)">STYLES/</text><text class="cls-2" transform="translate(1157.66 520.43)">portfolio/</text><rect class="cls-4" x="1050.03" y="927.96" width="360.12" height="83.75" rx="41.87"/><text class="cls-2" transform="translate(1064.41 983.31)">portfoliostyle.css</text><rect class="cls-4" x="1056.66" y="807.47" width="287.34" height="83.75" rx="41.87"/><text class="cls-2" transform="translate(1075.66 860.22)">mainstyle.css</text><rect class="cls-3" x="1119.88" y="1264.85" width="271.5" height="83.75" rx="41.87"/><text class="cls-2" transform="translate(1138.88 1317.61)">page1.html</text><rect class="cls-3" x="1127.66" y="1502.53" width="263.72" height="83.75" rx="41.87"/><text class="cls-2" transform="translate(1137.66 1556.96)">page3.html</text><path class="cls-5" d="M430.41,883.06c15.06-17.83,37.38-27.95,59.26-34.67,26-8,53-11.21,79.95-14,28.9-3.05,58.08-5.65,86.23-13.2A212.12,212.12,0,0,0,723.28,790c18.17-12.84,34.35-29,45.58-48.28q2-3.37,3.7-6.87c1.44-2.87-2.87-5.4-4.31-2.52-9.78,19.55-24.78,36.17-42.09,49.38A204,204,0,0,1,661,814.48c-27.59,8.27-56.41,11.2-85,14.19-27.21,2.84-54.56,5.66-81,13-22.54,6.22-45.63,15.53-62.69,32a80.1,80.1,0,0,0-5.48,5.87c-2.07,2.44,1.45,6,3.54,3.53Z"/><path class="cls-5" d="M486.48,967.29h76.6c3.22,0,3.22-5,0-5h-76.6c-3.21,0-3.22,5,0,5Z"/><path class="cls-5" d="M917.16,967.31l82.62-.06,23.4,0c3.21,0,3.22-5,0-5l-82.62.07h-23.4c-3.21,0-3.22,5,0,5Z"/><path class="cls-5" d="M926.59,911l82.51-42.89,23.51-12.22c2.86-1.48.33-5.8-2.52-4.32l-82.51,42.89-23.52,12.22c-2.85,1.48-.33,5.8,2.53,4.32Z"/><path class="cls-5" d="M988.14,625l52.91-31.79,52.69-31.66,29.78-17.9c2.75-1.65.24-6-2.53-4.31l-52.9,31.79-52.7,31.66-29.77,17.89c-2.75,1.66-.24,6,2.52,4.32Z"/><path class="cls-5" d="M347.73,1064.16,377,1150.57l29.25,86.4,29.25,86.41,29.25,86.4L494,1496.19l3.69,10.91c1,3,5.86,1.73,4.82-1.33l-29.25-86.41L444,1333l-29.26-86.41-29.25-86.41-29.25-86.4-3.69-10.91c-1-3-5.86-1.73-4.82,1.33Z"/><path class="cls-5" d="M278.64,1070.47l.11,233,.11,231.83.06,130.78c0,3.22,5,3.22,5,0l-.11-233-.11-231.84-.06-130.77c0-3.22-5-3.23-5,0Z"/><path class="cls-5" d="M335.21,882.83l29.25-86.41L393.71,710,423,623.61l29.26-86.4,29.25-86.41,3.69-10.9c1-3.06-3.79-4.37-4.82-1.33L451.09,525l-29.26,86.41-29.25,86.4-29.25,86.41L334.08,870.6l-3.69,10.9c-1,3.06,3.79,4.37,4.82,1.33Z"/><path class="cls-5" d="M289.3,875.2l.11-233,.11-231.84.06-130.77c0-3.22-5-3.23-5,0l-.11,233-.11,231.83L284.3,875.2c0,3.22,5,3.22,5,0Z"/><path class="cls-5" d="M978.72,1417.85l93-.07,26.5,0c3.22,0,3.22-5,0-5l-93,.08-26.5,0c-3.22,0-3.22,5,0,5Z"/><path class="cls-5" d="M988.14,1361.54l82.52-42.88,23.51-12.22c2.85-1.49.33-5.8-2.53-4.32L1009.13,1345l-23.51,12.22c-2.86,1.48-.33,5.8,2.52,4.31Z"/><path class="cls-5" d="M977.46,1482l82.51,42.89,23.51,12.22c2.86,1.48,5.39-2.83,2.53-4.32l-82.51-42.88L980,1477.67c-2.85-1.49-5.38,2.83-2.52,4.31Z"/><path class="cls-5" d="M436.3,1070.86c14.57,26.87,38,47.32,65.12,61,28.73,14.51,60.07,21.11,91.59,26.34,36.09,6,73.12,10.91,106.62,26.52,26.85,12.51,50.51,31.18,70.06,53.35a255.56,255.56,0,0,1,47.62,80.18q2.06,5.58,3.87,11.26c1,3,5.81,1.74,4.83-1.33a265.62,265.62,0,0,0-44.41-83.62c-18.5-23.38-41.34-43.6-67.47-58.06-31.41-17.38-66.65-24.4-101.71-30.16-32.61-5.36-65.6-10.19-96.26-23.13-27.59-11.65-52.89-29.61-69.55-54.85q-3.21-4.87-6-10c-1.53-2.83-5.85-.31-4.32,2.53Z"/><rect class="cls-3" x="1121.26" y="1624.22" width="318.74" height="83.75" rx="41.87"/><text class="cls-2" transform="translate(1138.26 1678.65)">sitemaps.html</text><path class="cls-5" d="M916.2,1478.23l77.31,63.29,77.31,63.28,43.29,35.44a2.57,2.57,0,0,0,3.53,0,2.53,2.53,0,0,0,0-3.54l-77.3-63.28L963,1510.14l-43.29-35.44a2.57,2.57,0,0,0-3.54,0,2.51,2.51,0,0,0,0,3.53Z"/><path class="cls-5" d="M374.58,889.18l52.48-62.56,52.48-62.56L532,701.5,584.49,639l52.27-62.32,6.59-7.85c2.06-2.45-1.46-6-3.54-3.53L587.34,627.8l-52.48,62.56-52.48,62.56L429.9,815.48l-52.27,62.31L371,885.64c-2.05,2.45,1.47,6,3.54,3.54Z"/></svg>