<svg id="Layer_2" data-name="Layer 2" xmlns="http://www.w3.org/2000/svg" viewBox="0 0 1913.87 2588.3"><defs><style>.cls-1{fill:#00a79d;}.cls-2{font-size:41px;font-family:CenturyGothic-Bold, Century Gothic;font-weight:700;}.cls-2,.cls-3{fill:#231f20;}</style></defs><title>CrawlTree</title><rect class="cls-1" x="80.78" y="751.14" width="257.58" height="83.75" rx="41.87"/><rect class="cls-1" x="495.92" y="1196.97" width="348.26" height="83.75" rx="41.87"/><rect class="cls-1" x="502.8" y="750.58" width="282.11" height="83.75" rx="41.87"/><rect class="cls-1" x="587.35" y="301.2" width="252.5" height="83.75" rx="41.87"/><text class="cls-2" transform="translate(101.22 803.9)">index.html</text><rect class="cls-1" x="1005.76" y="101.08" width="257.58" height="83.75" rx="41.87"/><text class="cls-2" transform="translate(1024.76 153.83)">index.html</text><rect class="cls-1" x="984.39" y="1712.36" width="363" height="83.75" rx="41.87"/><text class="cls-2" transform="translate(1003.39 1765.11)">/hw/page1.html</text><rect class="cls-1" x="995.87" y="1977.11" width="363" height="83.75" rx="41.87"/><text class="cls-2" transform="translate(1014.87 2029.87)">/hw/page2.html</text><rect class="cls-1" x="1459.8" y="2315.15" width="363" height="83.75" rx="41.87"/><text class="cls-2" transform="translate(1478.8 2367.9)">/hw/page1.html</text><rect class="cls-1" x="1457.88" y="2406.93" width="363" height="83.75" rx="41.87"/><text class="cls-2" transform="translate(1476.88 2459.69)">/hw/page2.html</text><rect class="cls-1" x="985.36" y="2239.79" width="363" height="83.75" rx="41.87"/><text class="cls-2" transform="translate(1004.36 2292.55)">/hw/page3.html</text><rect class="cls-1" x="1471.71" y="1951.42" width="363" height="83.75" rx="41.87"/><text class="cls-2" transform="translate(1484.71 2004.18)">/hw/page1.html</text><rect class="cls-1" x="1468.81" y="2053.06" width="363" height="83.75" rx="41.87"/><text class="cls-2" transform="translate(1487.81 2105.82)">/hw/page3.html</text><rect class="cls-1" x="1462.25" y="1607.07" width="363" height="83.75" rx="41.87"/><text class="cls-2" transform="translate(1481.25 1659.83)">/hw/page2.html</text><rect class="cls-1" x="1461.29" y="1712.14" width="363" height="83.75" rx="41.87"/><text class="cls-2" transform="translate(1480.29 1764.89)">/hw/page3.html</text><text class="cls-2" transform="translate(517.34 1252.14)">3618index.html</text><rect class="cls-1" x="1463.3" y="1506.01" width="348.26" height="83.75" rx="41.87"/><text class="cls-2" transform="translate(1484.72 1561.19)">3618index.html</text><rect class="cls-1" x="1463.66" y="1849.4" width="348.26" height="83.75" rx="41.87"/><text class="cls-2" transform="translate(1485.08 1904.57)">3618index.html</text><rect class="cls-1" x="1468.18" y="2222.47" width="348.26" height="83.75" rx="41.87"/><text class="cls-2" transform="translate(1489.61 2277.64)">3618index.html</text><rect class="cls-1" x="1005.76" y="352.45" width="348.26" height="83.75" rx="41.87"/><text class="cls-2" transform="translate(1024.76 407.63)">3618index.html</text><text class="cls-2" transform="translate(603.73 354.51)">netart.html</text><rect class="cls-1" x="948.76" y="763.77" width="252.5" height="83.75" rx="41.87"/><text class="cls-2" transform="translate(965.14 817.07)">netart.html</text><rect class="cls-1" x="1024.56" y="1215.35" width="252.5" height="83.75" rx="41.87"/><text class="cls-2" transform="translate(1040.95 1268.65)">netart.html</text><text class="cls-2" transform="translate(512.18 805)">portfolio.html</text><rect class="cls-1" x="1005.76" y="223.08" width="282.11" height="83.75" rx="41.87"/><text class="cls-2" transform="translate(1015.76 277.5)">portfolio.html</text><rect class="cls-1" x="955.98" y="639.08" width="257.58" height="83.75" rx="41.87"/><text class="cls-2" transform="translate(974.98 691.84)">index.html</text><rect class="cls-1" x="955.98" y="888.45" width="348.26" height="83.75" rx="41.87"/><text class="cls-2" transform="translate(974.98 943.63)">3618index.html</text><rect class="cls-1" x="1019.2" y="1096.46" width="257.58" height="83.75" rx="41.87"/><text class="cls-2" transform="translate(1038.2 1149.22)">index.html</text><rect class="cls-1" x="1026.98" y="1334.15" width="282.11" height="83.75" rx="41.87"/><text class="cls-2" transform="translate(1036.98 1388.57)">portfolio.html</text><path class="cls-3" d="M330.12,714.17c14.12-28.8,37.26-51.41,65.34-66.62,29.23-15.83,61.59-22.63,94-28.48,36.61-6.62,73.82-13.08,106.79-31.27,26.88-14.81,50-36,68.73-60.19a297.67,297.67,0,0,0,46.77-88.43q2-6,3.74-12c.9-3.09-3.92-4.41-4.82-1.32A298.3,298.3,0,0,1,667,516.64c-17.85,24.85-40.14,46.93-66.37,62.86-31.56,19.16-67.68,26.67-103.57,33.14-32.95,5.94-66,11.89-96.35,26.62-28.25,13.69-52.92,34.42-69.06,61.57-2.09,3.52-4,7.14-5.84,10.82-1.41,2.88,2.9,5.41,4.32,2.52Z"/><path class="cls-3" d="M385.8,798.9h76.6c3.22,0,3.22-5,0-5H385.8c-3.21,0-3.22,5,0,5Z"/><path class="cls-3" d="M816.49,798.93l82.61-.07,23.4,0c3.21,0,3.22-5,0-5l-82.62.07-23.39,0c-3.22,0-3.23,5,0,5Z"/><path class="cls-3" d="M825.91,742.62l82.51-42.88,23.51-12.22c2.86-1.49.33-5.81-2.52-4.32L846.9,726.08,823.38,738.3c-2.85,1.49-.33,5.8,2.53,4.32Z"/><path class="cls-3" d="M815.22,863.06,897.74,906l23.51,12.22c2.85,1.48,5.38-2.84,2.52-4.32L841.26,871l-23.51-12.22c-2.85-1.48-5.39,2.83-2.53,4.32Z"/><path class="cls-3" d="M869.88,314.43,959,288l25.4-7.53c3.08-.91,1.77-5.74-1.33-4.82L894,302.07l-25.41,7.54c-3.07.91-1.76,5.74,1.33,4.82Z"/><path class="cls-3" d="M850.63,261l52.9-31.8,52.7-31.66L986,179.66c2.75-1.66.24-6-2.52-4.32l-52.91,31.79L877.88,238.8,848.1,256.69c-2.75,1.65-.24,6,2.53,4.32Z"/><path class="cls-3" d="M861.7,369,951,394.73l25.46,7.34c3.1.9,4.42-3.93,1.33-4.82l-89.34-25.77L863,364.13c-3.1-.89-4.42,3.93-1.33,4.82Z"/><path class="cls-3" d="M878,1249.47l93-.08,26.5,0c3.22,0,3.22-5,0-5l-93,.07-26.5,0c-3.21,0-3.22,5,0,5Z"/><path class="cls-3" d="M887.47,1193.16,970,1150.27l23.51-12.22c2.86-1.48.33-5.8-2.52-4.32l-82.52,42.89-23.51,12.22c-2.85,1.48-.33,5.8,2.53,4.32Z"/><path class="cls-3" d="M876.78,1313.6l82.51,42.88,23.52,12.22c2.85,1.48,5.38-2.83,2.52-4.31l-82.51-42.89-23.52-12.22c-2.85-1.48-5.38,2.83-2.52,4.32Z"/><path class="cls-3" d="M1344.76,1711.33l80.91-28.21,22.88-8a2.56,2.56,0,0,0,1.74-3.08,2.51,2.51,0,0,0-3.07-1.74l-80.91,28.21-22.87,8a2.55,2.55,0,0,0-1.75,3.07,2.52,2.52,0,0,0,3.07,1.75Z"/><path class="cls-3" d="M1339.55,1682.67l38.47-45,38.46-45,21.74-25.41a2.56,2.56,0,0,0,0-3.54,2.51,2.51,0,0,0-3.53,0l-38.46,45-38.47,45L1336,1679.13a2.56,2.56,0,0,0,0,3.54,2.51,2.51,0,0,0,3.53,0Z"/><rect class="cls-1" x="1454.42" y="1359.4" width="348.26" height="83.75" rx="41.87"/><text class="cls-2" transform="translate(1475.85 1414.58)">3618index.html</text><path class="cls-3" d="M1330.68,1536.06l38.46-45,38.46-44.95,21.75-25.42a2.58,2.58,0,0,0,0-3.54,2.53,2.53,0,0,0-3.54,0l-38.46,45-38.46,44.95-21.75,25.42a2.55,2.55,0,0,0,0,3.53,2.53,2.53,0,0,0,3.54,0Z"/><path class="cls-3" d="M1360.78,1734.22l65.52,20.49,18.51,5.79c3.08,1,4.4-3.86,1.33-4.82l-65.52-20.49-18.51-5.79c-3.08-1-4.4,3.86-1.33,4.82Z"/><path class="cls-3" d="M1358.2,2320.42l66.47,27.27,18.93,7.76a2.5,2.5,0,0,0,3.07-1.74,2.56,2.56,0,0,0-1.74-3.08l-66.47-27.27-18.93-7.76a2.51,2.51,0,0,0-3.08,1.74,2.58,2.58,0,0,0,1.75,3.08Z"/><path class="cls-3" d="M1338.84,2339.94l38.55,46.91,38.39,46.71,21.73,26.44a2.5,2.5,0,0,0,3.53,0,2.54,2.54,0,0,0,0-3.53l-38.54-46.91-38.39-46.71-21.74-26.44a2.5,2.5,0,0,0-3.53,0,2.55,2.55,0,0,0,0,3.53Z"/><path class="cls-3" d="M1368.93,2287.59l65.52-21.34,18.51-6c3-1,1.75-5.83-1.33-4.83l-65.52,21.34-18.51,6c-3,1-1.75,5.82,1.33,4.82Z"/><path class="cls-3" d="M1374.73,2012.31l64.26-16,18.18-4.53c3.12-.78,1.8-5.6-1.33-4.82l-64.25,16-18.19,4.53c-3.12.78-1.8,5.6,1.33,4.82Z"/><path class="cls-3" d="M1365.8,1987.7l67.88-66,18.93-18.42c2.31-2.25-1.22-5.79-3.53-3.54l-67.88,66-18.94,18.42c-2.31,2.24,1.23,5.78,3.54,3.53Z"/><path class="cls-3" d="M1373.56,2040.69l59.16,34.82,16.72,9.84c2.78,1.64,5.3-2.68,2.53-4.31l-59.17-34.83-16.72-9.84c-2.78-1.64-5.29,2.68-2.52,4.32Z"/><path class="cls-3" d="M335.63,902.47c14.56,26.87,38,47.32,65.11,61,28.73,14.5,60.07,21.1,91.59,26.34,36.09,6,73.13,10.9,106.62,26.51,26.85,12.52,50.51,31.18,70.06,53.35a255.61,255.61,0,0,1,47.62,80.19q2.05,5.58,3.87,11.25c1,3.05,5.81,1.75,4.83-1.33a265.57,265.57,0,0,0-44.41-83.61c-18.5-23.38-41.33-43.6-67.47-58.07-31.41-17.38-66.65-24.4-101.71-30.16-32.61-5.36-65.6-10.19-96.25-23.13-27.6-11.65-52.9-29.6-69.56-54.85q-3.21-4.87-6-10c-1.53-2.83-5.85-.31-4.31,2.52Z"/><path class="cls-3" d="M742.77,1317.41a862.16,862.16,0,0,0,1.68,113.65,838.08,838.08,0,0,0,16.23,110.34,709.14,709.14,0,0,0,30,101.89c12.35,32.4,27.14,64.83,49,92,19.23,23.9,48.23,46.13,80.75,40.57a57.68,57.68,0,0,0,11-3.07c3-1.14,1.68-6-1.33-4.82-31.07,12-61.59-7.3-81.73-30.08-22.46-25.42-37.54-57.09-50-88.38A692.36,692.36,0,0,1,767.72,1550a820.85,820.85,0,0,1-17.29-107.64,862.79,862.79,0,0,1-3.26-111c.16-4.64.37-9.27.6-13.89.17-3.22-4.83-3.21-5,0Z"/><path class="cls-3" d="M736.59,1317.41q-3.47,87.1,1.74,174.27a1689.86,1689.86,0,0,0,18.52,169.13,1397.76,1397.76,0,0,0,34.55,157.9c14.38,50.79,31.29,102.22,57.9,148.07,12.08,20.83,26.58,41.09,45.78,55.93,16.23,12.53,36.52,20.74,57.19,16.22a61.23,61.23,0,0,0,14.13-5.11c2.88-1.43.35-5.75-2.52-4.32-45,22.31-85.35-24.46-106.35-58.68-27.17-44.27-44.18-94.6-58.65-144.21A1370.07,1370.07,0,0,1,764,1673.51a1660.8,1660.8,0,0,1-19.59-165.07q-5.88-84.9-3.54-170.1.3-10.47.72-20.93c.12-3.22-4.88-3.22-5,0Z"/><path class="cls-3" d="M736.34,1311.44q-2.76,116.1,1.17,232.24,3.82,113.52,14.21,226.7c6.58,70.82,15.22,141.47,26.57,211.69,11.26,69.69,24.14,139.85,45.68,207.19,9.33,29.18,20.17,59.22,37.64,84.62,11.17,16.24,30,36.58,52,28.85a40.91,40.91,0,0,0,12.47-7.43c2.48-2.06-1.07-5.58-3.53-3.54-7.92,6.56-17.55,9.55-27.5,6-11.1-3.94-19.82-13.68-26.61-22.91-18-24.44-28.86-54-38.23-82.58-21.44-65.49-34.25-133.85-45.48-201.72-11.3-68.26-20-136.95-26.63-205.81q-10.62-109.45-14.79-219.43-4.41-112.66-2.54-225.48.24-14.2.58-28.42c.07-3.22-4.93-3.22-5,0Z"/><rect class="cls-1" x="914.91" y="1536.75" width="414" height="83.75" rx="41.87"/><text class="cls-2" transform="translate(933.91 1589.5)">/hw/sitemaps.html</text><path class="cls-3" d="M742.57,1311.44a374.93,374.93,0,0,0,16.56,139.24,335,335,0,0,0,27.2,62.82c10.86,19.22,24.16,37.78,41.65,51.52s39.37,22.26,61.67,19a61.34,61.34,0,0,0,7.7-1.65c3.09-.86,1.78-5.69-1.33-4.82-20.87,5.84-42.74-.78-60.11-12.84-17.7-12.28-31.18-30-42.12-48.32A318.47,318.47,0,0,1,766,1455.6a368.19,368.19,0,0,1-19-135.54q.21-4.32.52-8.62a2.5,2.5,0,0,0-5,0Z"/></svg>