<svg id="Layer_1" data-name="Layer 1" xmlns="http://www.w3.org/2000/svg" viewBox="0 0 1595.23 1930.6"><defs><style>.cls-1{fill:#00a79d;}.cls-2{font-size:41px;font-family:CenturyGothic-Bold, Century Gothic;font-weight:700;}.cls-2,.cls-5{fill:#231f20;}.cls-3{fill:#27aae1;}.cls-4{fill:#9c7eba;}</style></defs><title>DirectoryTree</title><rect class="cls-1" x="130.72" y="904.85" width="320.57" height="83.75" rx="41.87"/><rect class="cls-1" x="686.81" y="1350.67" width="270.3" height="83.75" rx="41.87"/><rect class="cls-1" x="615.74" y="904.28" width="282.11" height="83.75" rx="41.87"/><rect class="cls-1" x="700.28" y="454.91" width="252.5" height="83.75" rx="41.87"/><text class="cls-2" transform="translate(149.11 962.96)">KDC59_ROOT/</text><rect class="cls-1" x="1118.69" y="254.78" width="220.71" height="83.75" rx="41.87"/><text class="cls-2" transform="translate(778.27 1405.22)">HW/</text><rect class="cls-3" x="418.18" y="1538.43" width="348.26" height="83.75" rx="41.87"/><text class="cls-2" transform="translate(439.6 1593.61)">3618index.html</text><rect class="cls-3" x="255.83" y="126.16" width="348.26" height="83.75" rx="41.87"/><text class="cls-2" transform="translate(314.01 181.34)">index.html</text><rect class="cls-3" x="408.53" y="288.13" width="348.26" height="83.75" rx="41.87"/><text class="cls-2" transform="translate(457.96 343.31)">netart.html</text><rect class="cls-3" x="234.4" y="1697.8" width="348.26" height="83.75" rx="41.87"/><text class="cls-2" transform="translate(267.83 1752.98)">portfolio.html</text><text class="cls-2" transform="translate(771.89 508.21)">IMGS/</text><rect class="cls-4" x="1061.69" y="917.47" width="328.31" height="83.75" rx="41.87"/><text class="cls-2" transform="translate(1078.07 970.77)">kdc59style.css</text><rect class="cls-3" x="1137.5" y="1369.05" width="266.14" height="83.75" rx="41.87"/><text class="cls-2" transform="translate(1153.88 1422.35)">page2.html</text><text class="cls-2" transform="translate(681.05 959.71)">STYLES/</text><text class="cls-2" transform="translate(1133.07 310.13)">portfolio/</text><rect class="cls-4" x="1074.27" y="668.1" width="360.12" height="83.75" rx="41.87"/><text class="cls-2" transform="translate(1088.65 723.45)">portfoliostyle.css</text><rect class="cls-4" x="1068.91" y="792.78" width="287.34" height="83.75" rx="41.87"/><text class="cls-2" transform="translate(1087.91 845.54)">3618style.css</text><rect class="cls-4" x="1068.91" y="1042.16" width="320.8" height="83.75" rx="41.87"/><text class="cls-2" transform="translate(1087.91 1097.34)">netartstyle.css</text><rect class="cls-3" x="1132.13" y="1250.17" width="271.5" height="83.75" rx="41.87"/><text class="cls-2" transform="translate(1151.13 1302.92)">page1.html</text><rect class="cls-3" x="1139.91" y="1487.85" width="263.72" height="83.75" rx="41.87"/><text class="cls-2" transform="translate(1149.91 1542.28)">page3.html</text><path class="cls-5" d="M443.05,867.88c14.13-28.8,37.26-51.41,65.35-66.62,29.22-15.83,61.59-22.63,94-28.49,36.6-6.61,73.81-13.08,106.79-31.26,26.87-14.82,50-36,68.72-60.19a297.6,297.6,0,0,0,46.77-88.44c1.33-4,2.57-8,3.74-12,.9-3.1-3.92-4.42-4.82-1.33a298.19,298.19,0,0,1-43.69,90.82c-17.84,24.86-40.13,46.94-66.37,62.87C682,752.37,645.87,759.88,610,766.35c-33,5.94-66,11.89-96.35,26.61-28.25,13.7-52.91,34.43-69.05,61.57-2.1,3.53-4,7.14-5.85,10.82-1.41,2.88,2.9,5.42,4.32,2.53Z"/><path class="cls-5" d="M498.74,952.61h76.59c3.22,0,3.23-5,0-5H498.74c-3.22,0-3.22,5,0,5Z"/><path class="cls-5" d="M929.42,952.63l82.62-.06,23.39,0c3.22,0,3.22-5,0-5l-82.62.06-23.39,0c-3.22,0-3.22,5,0,5Z"/><path class="cls-5" d="M938.84,896.33l82.52-42.89,23.51-12.22c2.85-1.48.33-5.8-2.53-4.32l-82.51,42.89L936.32,892c-2.86,1.48-.33,5.8,2.52,4.32Z"/><path class="cls-5" d="M928.16,1016.77l82.51,42.88,23.51,12.22c2.85,1.48,5.39-2.83,2.53-4.32l-82.52-42.88-23.51-12.22c-2.85-1.48-5.38,2.83-2.52,4.32Z"/><path class="cls-5" d="M963.56,414.71l52.91-31.79,52.69-31.66,29.77-17.9c2.76-1.65.25-6-2.52-4.31l-52.91,31.79L990.81,392.5,961,410.39c-2.76,1.66-.25,6,2.52,4.32Z"/><path class="cls-5" d="M877.89,882.87l70.24-58.37,69.86-58,39.53-32.86a2.51,2.51,0,0,0,0-3.53,2.54,2.54,0,0,0-3.53,0l-70.25,58.37-69.85,58.05-39.54,32.86a2.51,2.51,0,0,0,0,3.53,2.55,2.55,0,0,0,3.54,0Z"/><path class="cls-5" d="M360,1049.48l29.25,86.41,29.26,86.4,29.25,86.41L477,1395.1l29.25,86.41,3.69,10.91c1,3,5.86,1.73,4.83-1.33l-29.26-86.41-29.25-86.41L427,1231.87l-29.25-86.41-29.25-86.4-3.7-10.91c-1-3-5.85-1.73-4.82,1.33Z"/><path class="cls-5" d="M290.9,1055.79l.11,233,.1,231.83.07,130.78c0,3.21,5,3.22,5,0l-.11-233L296,1186.56l-.06-130.77c0-3.22-5-3.23-5,0Z"/><path class="cls-5" d="M370.46,868.15l29.26-86.41L429,695.34l29.25-86.41,29.25-86.4,29.25-86.41,3.69-10.9c1-3.06-3.79-4.37-4.82-1.33l-29.25,86.4L457.09,596.7l-29.25,86.4-29.25,86.41-29.26,86.4-3.69,10.91c-1,3,3.8,4.37,4.82,1.33Z"/><path class="cls-5" d="M301.56,860.52l.11-233,.1-231.84.07-130.78c0-3.21-5-3.22-5,0l-.11,233-.11,231.83-.06,130.78c0,3.21,5,3.22,5,0Z"/><path class="cls-5" d="M991,1403.17l93-.08,26.5,0c3.21,0,3.22-5,0-5l-93,.08-26.49,0c-3.22,0-3.23,5,0,5Z"/><path class="cls-5" d="M1000.4,1346.86l82.51-42.88,23.51-12.22c2.86-1.49.33-5.8-2.52-4.32l-82.51,42.89-23.51,12.22c-2.86,1.48-.33,5.8,2.52,4.31Z"/><path class="cls-5" d="M989.72,1467.3l82.51,42.89,23.51,12.22c2.85,1.48,5.38-2.83,2.52-4.32l-82.51-42.88L992.24,1463c-2.85-1.49-5.38,2.83-2.52,4.31Z"/><path class="cls-5" d="M448.56,1056.18c14.57,26.86,38,47.31,65.11,61,28.73,14.51,60.08,21.11,91.6,26.34,36.09,6,73.12,10.91,106.61,26.52,26.85,12.51,50.52,31.18,70.06,53.35a255.37,255.37,0,0,1,47.62,80.18q2.07,5.58,3.88,11.26c1,3,5.81,1.74,4.82-1.33a265.39,265.39,0,0,0-44.4-83.62c-18.51-23.38-41.34-43.6-67.48-58.06-31.41-17.38-66.65-24.4-101.71-30.16-32.61-5.36-65.59-10.19-96.25-23.14-27.59-11.64-52.89-29.6-69.55-54.84-2.15-3.25-4.14-6.6-6-10-1.54-2.83-5.86-.31-4.32,2.53Z"/><rect class="cls-3" x="1133.51" y="1609.54" width="318.74" height="83.75" rx="41.87"/><text class="cls-2" transform="translate(1150.51 1663.97)">sitemaps.html</text><path class="cls-5" d="M928.46,1463.55l77.31,63.29,77.3,63.28,43.29,35.44a2.58,2.58,0,0,0,3.54,0,2.53,2.53,0,0,0,0-3.54l-77.31-63.28-77.3-63.28L932,1460a2.56,2.56,0,0,0-3.54,0,2.51,2.51,0,0,0,0,3.53Z"/></svg>